<svg width="88" height="88" viewBox="0 0 88 88" fill="none" xmlns="http://www.w3.org/2000/svg"><g clip-path="url(#clip0_71_75)"><g clip-path="url(#clip1_71_75)"><g clip-path="url(#clip2_71_75)"><path d="M70 0H18C8.05887 0 0 8.05887 0 18V70C0 79.9411 8.05887 88 18 88H70C79.9411 88 88 79.9411 88 70V18C88 8.05887 79.9411 0 70 0Z" fill="#fff"/></g></g><g clip-path="url(#clip3_71_75)" fill="#DC241F"><path fill-rule="evenodd" clip-rule="evenodd" d="M59.2946 24.5771C62.8586 24.5771 65.9652 27.0027 66.8295 30.4602L69.7542 42.159C71.9723 51.0314 72.1293 60.294 70.213 69.2365L68.6161 76.689C67.8487 80.27 64.684 82.8284 61.0216 82.8284H26.9783C23.3159 82.8284 20.1512 80.27 19.3838 76.689L17.7869 69.2365C15.8706 60.294 16.0276 51.0314 18.2457 42.159L21.1704 30.4602C22.0347 27.0027 25.1413 24.5771 28.7053 24.5771H59.2946ZM59.2413 29.2372H29.311C27.529 29.2372 25.9756 30.4501 25.5435 32.179L22.7666 43.2892L22.3829 44.9303C21.3368 49.7329 20.9386 54.6432 21.1907 59.5309H67.3617C67.6137 54.6432 67.2156 49.7329 66.1695 44.9303L65.7857 43.2892L63.0088 32.179C62.5767 30.4501 61.0233 29.2372 59.2413 29.2372Z"/><path d="M44 5.16C46.9964 5.16 49.5965 6.85682 50.8919 9.342L74.1908 5.2374L75 9.82671L51.7019 13.9357C51.2074 17.7486 47.9476 20.6937 44 20.6937C41.0036 20.6937 38.4035 18.9969 37.1082 16.5117L13.8092 20.6163L13 16.027L36.2981 11.918C36.7926 8.10513 40.0524 5.16 44 5.16ZM44 9.04343C41.8552 9.04343 40.1166 10.7821 40.1166 12.9268C40.1166 15.0716 41.8552 16.8103 44 16.8103C46.1448 16.8103 47.8834 15.0716 47.8834 12.9268C47.8834 10.7821 46.1448 9.04343 44 9.04343Z"/></g></g><defs><clipPath id="clip0_71_75"><path fill="#fff" d="M0 0H88V88H0z"/></clipPath><clipPath id="clip1_71_75"><path fill="#fff" d="M0 0H88V88H0z"/></clipPath><clipPath id="clip2_71_75"><path fill="#fff" d="M0 0H88V88H0z"/></clipPath><clipPath id="clip3_71_75"><path fill="#fff" d="M0 0H88V88H0z"/></clipPath></defs></svg>