<svg width="88" height="88" viewBox="0 0 88 88" fill="none" xmlns="http://www.w3.org/2000/svg"><g clip-path="url(#clip0_71_75)"><g clip-path="url(#clip1_71_75)"><g clip-path="url(#clip2_71_75)"><path d="M70 0H18C8.05887 0 0 8.05887 0 18V70C0 79.9411 8.05887 88 18 88H70C79.9411 88 88 79.9411 88 70V18C88 8.05887 79.9411 0 70 0Z" fill="#fff"/></g></g><g clip-path="url(#clip3_71_75)"><g clip-path="url(#clip4_71_75)"><path fill-rule="evenodd" clip-rule="evenodd" d="M18.8935 41.5523L29.8622 41.5449V35.3431H22.5452C22.5452 35.3431 21.9729 35.3948 21.3698 35.8415C20.944 36.1591 20.6622 36.8409 20.6622 36.8409L18.8935 41.5523ZM43.0917 41.5462V35.3431H32.5502V41.5462H43.0917ZM45.7071 41.5597L56.3249 41.5449V35.3431H45.7292L45.7071 41.5597ZM59.0117 35.3431V41.5449H69.1938L66.416 37.9129C66.416 37.9129 65.28 36.3905 64.736 36.0274C63.8055 35.4083 62.992 35.3431 62.992 35.3431H59.0117ZM4 55.8083L9.18769 41.5449H14.976L17.5803 34.7215C17.5803 34.7215 17.7674 33.8982 18.9575 32.8975C19.856 32.1382 21.2714 32.1382 21.2714 32.1382H37.408V29.2446H47.2788L48.8566 27.0403L47.7649 24.2846L50.4578 24.2883L52.5526 29.2446H56.3249V32.1382H64.5945C64.5945 32.1382 65.7317 32.2292 66.3532 32.6292C66.9809 33.0354 67.2554 33.3012 67.2554 33.3012L73.5865 41.5449H84L73.5865 55.8083C71.2406 54.8434 64.1538 53.012 59.8129 53.0895C53.92 53.1929 46.2708 55.7763 41.104 55.7763C31.6972 55.7763 28.4812 52.9185 20.2252 52.4692C10.0948 51.9179 4 55.8083 4 55.8083ZM71.4166 59.0145L69.0658 62.3474C65.6283 61.5215 60.848 60.0729 52.6006 61.8009C48.4652 62.6674 44.592 63.6139 40.7926 63.6655C35.8338 63.7332 33.0338 62.8569 29.1914 61.8822C25.7391 61.0059 21.7243 60.2022 18.6843 60.2575C13.3194 60.356 9.26769 61.1855 7.02031 62.2194L8.672 57.8255C13.0658 56.3006 20.5662 55.4206 29.2185 57.9449C32.8898 59.0132 36.6486 59.7542 40.4849 59.7172C43.9988 59.6865 47.3022 59.1203 50.7483 58.3277C61.6997 55.8095 65.8597 57.6175 71.4166 59.0145Z" fill="#000"/></g></g></g><defs><clipPath id="clip0_71_75"><path fill="#fff" d="M0 0H88V88H0z"/></clipPath><clipPath id="clip1_71_75"><path fill="#fff" d="M0 0H88V88H0z"/></clipPath><clipPath id="clip2_71_75"><path fill="#fff" d="M0 0H88V88H0z"/></clipPath><clipPath id="clip3_71_75"><path fill="#fff" d="M0 0H88V88H0z"/></clipPath><clipPath id="clip4_71_75"><path fill="#fff" d="M0 0H88V88H0z"/></clipPath></defs></svg>