<svg width="88" height="88" viewBox="0 0 88 88" fill="none" xmlns="http://www.w3.org/2000/svg"><g clip-path="url(#clip0_1259_68091)"><path d="M70 0H18C8.05887 0 0 8.05887 0 18V70C0 79.9411 8.05887 88 18 88H70C79.9411 88 88 79.9411 88 70V18C88 8.05887 79.9411 0 70 0Z" fill="#fff"/><circle cx="44" cy="44" r="44" fill="#fff"/><path d="M19.4175 20H38.3433L62.0379 31.8803H84V40.0345H61.77L43.6311 47.9777H84L83.985 56.0169H44.02L70.1401 67.9892H49.9707L26.373 55.9919H4L4.018 47.9937L26.21 47.9697L43.7171 39.9955H4.018V31.9973H44.2889L19.4175 20Z" fill="#DE433E"/></g><defs><clipPath id="clip0_1259_68091"><path fill="#fff" d="M0 0H88V88H0z"/></clipPath></defs></svg>